<svg width="40" height="40" viewBox="0 0 40 40" fill="none" xmlns="http://www.w3.org/2000/svg">
<path fill-rule="evenodd" clip-rule="evenodd" d="M27.0084 3.27703C24.9184 1.78118 23.534 0.964495 22.6078 0.593414C22.1535 0.411412 21.7057 0.260395 21.3279 0.156646C20.9709 0.0586321 20.6378 -0.0084153 20.422 0.000854992L20.4203 0.000894108C18.2377 0.0553386 16.1468 0.715459 14.0699 1.81309C11.9881 2.9133 10.0845 4.48478 8.74359 6.14141C7.41949 7.77724 5.25417 10.8913 3.78475 13.6059C3.17299 14.736 2.31528 16.5041 1.58123 18.3113C0.851234 20.1086 0.227712 21.9822 0.109364 23.3091C-0.0734713 25.3589 0.0151686 28.6401 0.0739803 30.817L0.0740249 30.8187C0.0889799 31.3723 0.102003 31.8545 0.108129 32.2267C0.124597 33.2273 0.547356 34.5353 1.23914 35.7955C1.9339 37.061 2.9199 38.3151 4.10046 39.1975C5.33516 40.1204 6.71518 40.1759 8.01312 39.7247C9.30065 39.2771 10.518 38.3301 11.4889 37.2218C12.4922 36.0765 12.9431 34.6564 13.1468 33.2228C13.3223 31.9877 13.3172 30.7157 13.3125 29.5785L13.3125 29.5767C13.3118 29.399 13.3111 29.2246 13.3111 29.0542C13.3111 26.5039 13.3111 24.1146 13.3867 21.8033C13.4239 20.6655 13.5729 19.6195 13.7239 18.6766C13.7493 18.518 13.7749 18.3615 13.8001 18.2076C13.8426 17.9483 13.8839 17.6956 13.9211 17.4521C14.0442 17.7366 14.1535 18.0017 14.2204 18.2753C14.3553 18.8269 14.5541 19.3611 14.7598 19.8771C14.8164 20.0192 14.8733 20.1593 14.9296 20.2981C15.0804 20.6695 15.2274 21.0314 15.3558 21.3979C15.9171 22.9989 16.6616 24.4006 17.426 25.8397L17.4268 25.8411C17.5365 26.0476 17.6466 26.2549 17.7566 26.4636C18.051 27.0222 18.5309 27.423 19.0411 27.7115C19.2244 27.8884 19.4467 28.0288 19.7096 28.1148C20.078 28.2353 20.4981 28.2402 20.9617 28.1266C20.9827 28.1214 21.0034 28.116 21.0239 28.1102C21.0752 28.1013 21.1251 28.09 21.1736 28.0765C21.2297 28.0618 21.2833 28.0442 21.3335 28.0232C21.3487 28.0168 21.3647 28.0096 21.3813 28.0014C21.6625 27.8747 21.8808 27.6656 22.0174 27.408C22.209 27.1432 22.3382 26.8353 22.4156 26.5245C22.4279 26.4748 22.4391 26.4246 22.4491 26.374C22.9778 25.0466 23.4397 23.7198 23.9112 22.3651C24.1193 21.7672 24.3294 21.1638 24.5479 20.5526C24.5681 20.4961 24.5882 20.4411 24.6082 20.3874L24.6084 20.3905C24.6391 20.7709 24.681 21.1529 24.721 21.505C24.7261 21.5506 24.7312 21.5955 24.7363 21.6399L24.7381 21.6555C24.7717 21.9504 24.8022 22.2181 24.8223 22.4461C24.9338 23.7136 25.233 25.0675 25.5002 26.2712C25.5632 26.5551 25.6235 26.8348 25.6831 27.1114C26.026 28.7013 26.3468 30.189 27.0301 31.7872C27.46 32.7929 27.8343 33.6127 28.4537 34.4575C29.0726 35.3015 29.9257 36.1571 31.3013 37.2599C32.6757 38.3618 33.6701 38.9526 34.5237 39.2247C35.392 39.5014 36.0898 39.4401 36.841 39.2977C37.6449 39.1453 38.1991 38.7798 38.6111 38.1358C39.0058 37.5189 39.2618 36.6574 39.5263 35.5403C40.0263 33.4292 40.0112 31.8887 39.9938 30.1062C39.9924 29.9601 39.9909 29.8123 39.9898 29.6625C39.9736 27.6067 39.2463 25.7206 38.3116 23.9582C37.8439 23.0764 37.3208 22.2194 36.8044 21.3851C36.7433 21.2863 36.6822 21.1879 36.6214 21.0898L36.6182 21.0846C36.1646 20.3531 35.7222 19.6395 35.3255 18.932C34.4251 17.3259 34.1655 16.7216 33.4475 14.9203C32.5753 12.7318 31.5101 10.2182 30.3992 8.06182C29.8438 6.98369 29.2742 5.98936 28.7087 5.16732C28.1464 4.34998 27.5742 3.68199 27.0084 3.27703Z" fill="#332C3D"/>
</svg>
