<svg width="1312" height="724" viewBox="0 0 1312 724" fill="none" xmlns="http://www.w3.org/2000/svg">
<rect y="0.721313" width="1312" height="723" rx="32" fill="url(#paint0_linear_178_4053)"/>
<path d="M607.634 199.368V195.182L603.966 189.428H606.318L608.642 193.194L610.98 189.428H613.346L609.664 195.196V199.368H607.634ZM619.486 195.868C619.486 197.912 617.834 199.522 615.804 199.522C613.774 199.522 612.122 197.912 612.122 195.868C612.122 193.824 613.774 192.214 615.804 192.214C617.834 192.214 619.486 193.824 619.486 195.868ZM614.054 195.868C614.054 196.946 614.796 197.73 615.804 197.73C616.812 197.73 617.54 196.946 617.54 195.868C617.54 194.79 616.812 194.006 615.804 194.006C614.796 194.006 614.054 194.79 614.054 195.868ZM620.785 196.428V192.368H622.703V196.106C622.703 197.156 623.067 197.772 623.893 197.772C624.747 197.772 625.335 197.142 625.335 195.784V192.368H627.253V199.368H625.335V198.57C624.971 199.13 624.313 199.522 623.417 199.522C621.723 199.522 620.785 198.29 620.785 196.428ZM629.1 199.368V192.368H631.018V193.488C631.256 192.802 631.97 192.284 632.754 192.284C632.95 192.284 633.16 192.298 633.398 192.368V194.314C633.104 194.216 632.838 194.16 632.53 194.16C631.62 194.16 631.018 194.874 631.018 196.022V199.368H629.1ZM636.948 197.758L638.502 196.456C638.992 197.198 639.846 197.632 640.658 197.632C641.456 197.632 641.988 197.24 641.988 196.666C641.988 196.106 641.582 195.714 640.602 195.378L639.762 195.084C638.166 194.524 637.312 193.6 637.312 192.242C637.312 190.366 638.74 189.26 640.672 189.26C641.89 189.26 642.954 189.68 643.808 190.632L642.464 192.018C641.988 191.444 641.372 191.164 640.686 191.164C640 191.164 639.356 191.458 639.356 192.046C639.356 192.648 639.846 192.914 640.896 193.292L641.694 193.586C643.15 194.118 644.06 195.042 644.06 196.54C644.046 198.318 642.632 199.536 640.574 199.536C638.992 199.536 637.662 198.85 636.948 197.758ZM647.701 202.294H645.615L647.085 198.976L644.145 192.368H646.245L648.121 196.904L649.983 192.368H652.097L647.701 202.294ZM653.026 199.368V192.368H654.944V193.166C655.322 192.62 655.952 192.214 656.806 192.214C657.828 192.214 658.556 192.69 658.976 193.502C659.41 192.634 660.348 192.214 661.146 192.214C662.812 192.214 663.764 193.418 663.764 195.308V199.368H661.846V195.63C661.846 194.594 661.51 193.964 660.754 193.964C659.928 193.964 659.354 194.608 659.354 195.952V199.368H657.436V195.63C657.436 194.594 657.1 193.964 656.344 193.964C655.518 193.964 654.944 194.608 654.944 195.952V199.368H653.026ZM665.522 202.294V192.368H667.44V193.152C667.762 192.704 668.504 192.214 669.47 192.214C671.332 192.214 672.76 193.88 672.76 195.868C672.76 197.856 671.332 199.522 669.47 199.522C668.504 199.522 667.762 199.032 667.44 198.584V202.294H665.522ZM670.814 195.868C670.814 194.776 670.1 193.964 669.05 193.964C668 193.964 667.286 194.776 667.286 195.868C667.286 196.96 668 197.772 669.05 197.772C670.1 197.772 670.814 196.96 670.814 195.868ZM678.618 199.298C678.31 199.396 677.932 199.452 677.4 199.452C675.916 199.452 674.726 198.626 674.726 196.918V194.048H673.312V192.368H674.726V190.422H676.644V192.368H678.618V194.048H676.644V196.54C676.644 197.394 677.008 197.73 677.834 197.73C678.142 197.73 678.394 197.688 678.618 197.604V199.298ZM686.793 195.868C686.793 197.912 685.141 199.522 683.111 199.522C681.081 199.522 679.429 197.912 679.429 195.868C679.429 193.824 681.081 192.214 683.111 192.214C685.141 192.214 686.793 193.824 686.793 195.868ZM681.361 195.868C681.361 196.946 682.103 197.73 683.111 197.73C684.119 197.73 684.847 196.946 684.847 195.868C684.847 194.79 684.119 194.006 683.111 194.006C682.103 194.006 681.361 194.79 681.361 195.868ZM688.176 199.368V192.368H690.094V193.166C690.472 192.62 691.102 192.214 691.956 192.214C692.978 192.214 693.706 192.69 694.126 193.502C694.56 192.634 695.498 192.214 696.296 192.214C697.962 192.214 698.914 193.418 698.914 195.308V199.368H696.996V195.63C696.996 194.594 696.66 193.964 695.904 193.964C695.078 193.964 694.504 194.608 694.504 195.952V199.368H692.586V195.63C692.586 194.594 692.25 193.964 691.494 193.964C690.668 193.964 690.094 194.608 690.094 195.952V199.368H688.176ZM705.684 197.24C705.684 198.598 704.522 199.522 703.024 199.522C701.792 199.522 700.742 199.088 700.14 198.178L701.456 197.058C701.764 197.576 702.352 197.87 703.024 197.87C703.416 197.87 703.794 197.716 703.794 197.366C703.794 197.072 703.626 196.904 702.856 196.694L702.338 196.568C701.05 196.232 700.378 195.406 700.406 194.328C700.434 193.04 701.554 192.214 703.038 192.214C704.102 192.214 704.928 192.62 705.46 193.39L704.2 194.412C703.878 194.006 703.472 193.796 703.01 193.796C702.674 193.796 702.31 193.95 702.31 194.272C702.31 194.482 702.408 194.72 702.996 194.874L703.654 195.07C704.914 195.406 705.684 196.022 705.684 197.24Z" fill="#284849"/>
<path d="M568 191.812C599.622 175.33 692.52 175.586 731.565 185.731C737.625 187.322 744.669 190.42 743.949 195.222C743.419 198.775 738.912 201.105 734.633 202.668C723.726 206.618 711.721 208.522 699.754 210.057C664.609 214.547 580.119 215.882 574.968 196.672C573.946 192.864 576.71 188.914 580.46 186.214C584.209 183.514 589.094 181.894 593.904 180.473C614.733 174.307 638.44 172.374 660.822 172.971" stroke="#6FB39F" stroke-miterlimit="10"/>
<path d="M431.772 288.868V272.068L416.708 249.108H424.38L435.02 265.572L445.716 249.108H453.444L438.324 272.124V288.868H431.772ZM477.613 274.868C477.613 282.988 471.229 289.428 462.941 289.428C454.653 289.428 448.269 282.988 448.269 274.868C448.269 266.748 454.653 260.308 462.941 260.308C471.229 260.308 477.613 266.748 477.613 274.868ZM454.485 274.868C454.485 279.852 457.957 283.716 462.941 283.716C467.869 283.716 471.341 279.852 471.341 274.868C471.341 269.884 467.869 266.02 462.941 266.02C457.957 266.02 454.485 269.884 454.485 274.868ZM482.297 277.612V260.868H488.457V276.604C488.457 281.084 490.473 283.828 494.057 283.828C498.033 283.828 500.889 280.636 500.889 274.644V260.868H507.049V288.868H500.889V285.06C499.265 287.86 496.297 289.428 492.713 289.428C486.273 289.428 482.297 284.78 482.297 277.612ZM513.601 264.004V249.108H518.921V264.004H513.601ZM525.456 288.868V260.868H531.616V265.852C532.68 262.66 535.816 260.588 539.008 260.588C539.792 260.588 540.576 260.644 541.416 260.812V267.14C540.352 266.804 539.456 266.636 538.336 266.636C534.808 266.636 531.616 269.604 531.616 275.204V288.868H525.456ZM542.665 274.868C542.665 266.636 548.769 260.308 557.281 260.308C564.617 260.308 570.777 265.18 570.777 274.196C570.777 274.812 570.777 275.316 570.721 276.212H548.713C548.993 280.804 552.689 283.828 557.337 283.828C561.257 283.828 563.889 282.036 565.345 279.572L570.049 282.932C567.529 286.908 563.161 289.428 557.281 289.428C548.769 289.428 542.665 283.38 542.665 274.868ZM557.057 265.516C553.473 265.516 549.833 267.588 548.993 271.732H564.561C563.889 267.7 560.641 265.516 557.057 265.516ZM586.033 274.868C586.033 266.86 591.857 260.308 599.529 260.308C603.561 260.308 606.921 262.38 608.489 264.62V246.868H614.649V288.868H608.489V285.116C606.921 287.356 603.561 289.428 599.529 289.428C591.857 289.428 586.033 282.876 586.033 274.868ZM608.993 274.868C608.993 269.828 605.633 265.908 600.649 265.908C595.665 265.908 592.305 269.828 592.305 274.868C592.305 279.908 595.665 283.828 600.649 283.828C605.633 283.828 608.993 279.908 608.993 274.868ZM619.915 274.868C619.915 266.636 626.019 260.308 634.531 260.308C641.867 260.308 648.027 265.18 648.027 274.196C648.027 274.812 648.027 275.316 647.971 276.212H625.963C626.243 280.804 629.939 283.828 634.587 283.828C638.507 283.828 641.139 282.036 642.595 279.572L647.299 282.932C644.779 286.908 640.411 289.428 634.531 289.428C626.019 289.428 619.915 283.38 619.915 274.868ZM634.307 265.516C630.723 265.516 627.083 267.588 626.243 271.732H641.811C641.139 267.7 637.891 265.516 634.307 265.516ZM651.223 274.868C651.223 266.86 657.047 260.308 664.719 260.308C668.751 260.308 672.111 262.38 673.679 264.62V260.868H679.839V288.868H673.679V285.116C672.111 287.356 668.751 289.428 664.719 289.428C657.047 289.428 651.223 282.876 651.223 274.868ZM674.183 274.868C674.183 269.828 670.823 265.908 665.839 265.908C660.855 265.908 657.495 269.828 657.495 274.868C657.495 279.908 660.855 283.828 665.839 283.828C670.823 283.828 674.183 279.908 674.183 274.868ZM687.064 288.868V246.868H693.224V288.868H687.064ZM707.55 250.62C707.55 252.916 705.758 254.764 703.462 254.764C701.222 254.764 699.318 252.916 699.318 250.62C699.318 248.38 701.222 246.532 703.462 246.532C705.758 246.532 707.55 248.38 707.55 250.62ZM700.382 288.868V260.868H706.542V288.868H700.382ZM713.699 288.868V260.868H719.859V264.676C721.539 261.876 724.731 260.308 728.371 260.308C734.867 260.308 739.067 264.9 739.067 272.012V288.868H732.907V273.02C732.907 268.596 730.667 265.908 727.083 265.908C722.995 265.908 719.859 269.1 719.859 275.092V288.868H713.699ZM772.429 286.964C772.429 296.708 766.157 301.132 757.869 301.132C752.381 301.132 747.509 299.06 744.765 295.98L748.517 291.556C750.869 294.132 754.061 295.644 757.813 295.644C762.461 295.644 766.269 292.564 766.269 286.908V284.332C764.589 286.796 761.173 288.7 757.309 288.7C749.749 288.7 743.869 282.428 743.869 274.476C743.869 266.58 749.749 260.308 757.309 260.308C761.173 260.308 764.589 262.156 766.269 264.62V260.868H772.429V286.964ZM750.085 274.476C750.085 279.46 753.669 283.044 758.429 283.044C763.189 283.044 766.773 279.46 766.773 274.476C766.773 269.492 763.189 265.908 758.429 265.908C753.669 265.908 750.085 269.492 750.085 274.476ZM814.531 288.868L808.371 270.724L802.267 288.868H796.443L787.035 260.868H793.531L799.579 280.132L806.019 260.868H810.723L817.107 280.132L823.211 260.868H829.763L820.355 288.868H814.531ZM840.419 250.62C840.419 252.916 838.627 254.764 836.331 254.764C834.091 254.764 832.187 252.916 832.187 250.62C832.187 248.38 834.091 246.532 836.331 246.532C838.627 246.532 840.419 248.38 840.419 250.62ZM833.251 288.868V260.868H839.411V288.868H833.251ZM863.312 288.532C862.08 288.924 860.624 289.148 858.72 289.148C853.344 289.148 849.144 286.18 849.144 279.852V266.356H843.32V260.868H849.144V253.084H855.304V260.868H863.312V266.356H855.304V278.844C855.304 282.316 856.816 283.604 860.008 283.604C861.184 283.604 862.416 283.38 863.312 283.044V288.532ZM868.034 288.868V246.868H874.194V264.676C875.874 261.876 879.066 260.308 882.706 260.308C889.202 260.308 893.402 264.9 893.402 272.012V288.868H887.242V273.02C887.242 268.596 885.002 265.908 881.418 265.908C877.33 265.908 874.194 269.1 874.194 275.092V288.868H868.034ZM399.953 343.748C399.953 349.124 395.585 352.428 389.817 352.428C384.833 352.428 380.577 350.468 378.561 346.492L383.097 343.244C384.217 345.708 386.961 347.108 389.817 347.108C392.001 347.108 393.849 346.1 393.849 344.14C393.849 342.516 392.897 341.564 389.537 340.556L387.073 339.884C382.201 338.54 379.681 335.46 379.737 331.316C379.793 326.332 384.161 323.308 389.761 323.308C393.961 323.308 397.265 324.988 399.225 328.068L394.969 331.316C393.737 329.58 391.945 328.46 389.649 328.46C387.801 328.46 385.897 329.412 385.897 331.092C385.897 332.436 386.513 333.612 389.257 334.396L392.113 335.236C397.041 336.692 399.953 339.156 399.953 343.748ZM412.391 313.62C412.391 315.916 410.599 317.764 408.303 317.764C406.063 317.764 404.159 315.916 404.159 313.62C404.159 311.38 406.063 309.532 408.303 309.532C410.599 309.532 412.391 311.38 412.391 313.62ZM405.223 351.868V323.868H411.383V351.868H405.223ZM445.14 349.964C445.14 359.708 438.868 364.132 430.58 364.132C425.092 364.132 420.22 362.06 417.476 358.98L421.228 354.556C423.58 357.132 426.772 358.644 430.524 358.644C435.172 358.644 438.98 355.564 438.98 349.908V347.332C437.3 349.796 433.884 351.7 430.02 351.7C422.46 351.7 416.58 345.428 416.58 337.476C416.58 329.58 422.46 323.308 430.02 323.308C433.884 323.308 437.3 325.156 438.98 327.62V323.868H445.14V349.964ZM422.796 337.476C422.796 342.46 426.38 346.044 431.14 346.044C435.9 346.044 439.484 342.46 439.484 337.476C439.484 332.492 435.9 328.908 431.14 328.908C426.38 328.908 422.796 332.492 422.796 337.476ZM452.311 351.868V323.868H458.471V327.676C460.151 324.876 463.343 323.308 466.983 323.308C473.479 323.308 477.679 327.9 477.679 335.012V351.868H471.519V336.02C471.519 331.596 469.279 328.908 465.695 328.908C461.607 328.908 458.471 332.1 458.471 338.092V351.868H452.311ZM491.609 313.62C491.609 315.916 489.817 317.764 487.521 317.764C485.281 317.764 483.377 315.916 483.377 313.62C483.377 311.38 485.281 309.532 487.521 309.532C489.817 309.532 491.609 311.38 491.609 313.62ZM484.441 351.868V323.868H490.601V351.868H484.441ZM500.39 351.868V329.356H494.566V323.868H500.39V319.164C500.39 312.892 504.59 309.532 509.966 309.532C511.87 309.532 513.382 309.812 514.558 310.204V315.692C513.662 315.356 512.43 315.132 511.254 315.132C508.062 315.132 506.55 316.42 506.55 319.892V323.868H514.558V329.356H506.55V351.868H500.39ZM526.654 313.62C526.654 315.916 524.862 317.764 522.566 317.764C520.326 317.764 518.422 315.916 518.422 313.62C518.422 311.38 520.326 309.532 522.566 309.532C524.862 309.532 526.654 311.38 526.654 313.62ZM519.486 351.868V323.868H525.646V351.868H519.486ZM558.657 344.7C556.249 349.348 551.377 352.428 545.609 352.428C537.209 352.428 530.825 346.156 530.825 337.868C530.825 329.58 537.209 323.308 545.609 323.308C551.377 323.308 556.249 326.388 558.657 331.036L553.281 333.948C551.937 331.092 549.193 329.02 545.609 329.02C540.625 329.02 537.097 332.884 537.097 337.868C537.097 342.852 540.625 346.716 545.609 346.716C549.193 346.716 551.937 344.644 553.281 341.788L558.657 344.7ZM561.151 337.868C561.151 329.86 566.975 323.308 574.647 323.308C578.679 323.308 582.039 325.38 583.607 327.62V323.868H589.767V351.868H583.607V348.116C582.039 350.356 578.679 352.428 574.647 352.428C566.975 352.428 561.151 345.876 561.151 337.868ZM584.111 337.868C584.111 332.828 580.751 328.908 575.767 328.908C570.783 328.908 567.423 332.828 567.423 337.868C567.423 342.908 570.783 346.828 575.767 346.828C580.751 346.828 584.111 342.908 584.111 337.868ZM596.992 351.868V323.868H603.152V327.676C604.832 324.876 608.024 323.308 611.664 323.308C618.16 323.308 622.36 327.9 622.36 335.012V351.868H616.2V336.02C616.2 331.596 613.96 328.908 610.376 328.908C606.288 328.908 603.152 332.1 603.152 338.092V351.868H596.992ZM645.538 351.532C644.306 351.924 642.85 352.148 640.946 352.148C635.57 352.148 631.37 349.18 631.37 342.852V329.356H625.546V323.868H631.37V316.084H637.53V323.868H645.538V329.356H637.53V341.844C637.53 345.316 639.042 346.604 642.234 346.604C643.41 346.604 644.642 346.38 645.538 346.044V351.532ZM681.359 343.748C681.359 349.124 676.991 352.428 671.223 352.428C666.239 352.428 661.983 350.468 659.967 346.492L664.503 343.244C665.623 345.708 668.367 347.108 671.223 347.108C673.407 347.108 675.255 346.1 675.255 344.14C675.255 342.516 674.303 341.564 670.943 340.556L668.479 339.884C663.607 338.54 661.087 335.46 661.143 331.316C661.199 326.332 665.567 323.308 671.167 323.308C675.367 323.308 678.671 324.988 680.631 328.068L676.375 331.316C675.143 329.58 673.351 328.46 671.055 328.46C669.207 328.46 667.303 329.412 667.303 331.092C667.303 332.436 667.919 333.612 670.663 334.396L673.519 335.236C678.447 336.692 681.359 339.156 681.359 343.748ZM695.152 363.572H688.376L694.368 350.356L682.328 323.868H689.104L697.728 343.692L706.296 323.868H713.128L695.152 363.572ZM716.298 351.868V323.868H722.458V327.676C724.026 325.044 726.826 323.308 730.41 323.308C734.554 323.308 737.578 325.38 739.09 328.852C740.77 325.268 744.354 323.308 748.05 323.308C754.378 323.308 758.13 327.956 758.13 335.124V351.868H751.97V336.132C751.97 331.764 750.346 328.908 746.986 328.908C743.01 328.908 740.322 332.212 740.322 338.092V351.868H734.162V336.132C734.162 331.764 732.538 328.908 729.178 328.908C725.202 328.908 722.458 332.212 722.458 338.092V351.868H716.298ZM764.889 363.572V323.868H771.049V327.62C772.617 325.38 776.033 323.308 780.065 323.308C787.737 323.308 793.561 329.86 793.561 337.868C793.561 345.876 787.737 352.428 780.065 352.428C776.033 352.428 772.617 350.356 771.049 348.116V363.572H764.889ZM787.289 337.868C787.289 332.828 783.873 328.908 778.945 328.908C773.961 328.908 770.545 332.828 770.545 337.868C770.545 342.908 773.961 346.828 778.945 346.828C783.873 346.828 787.289 342.908 787.289 337.868ZM814.912 351.532C813.68 351.924 812.224 352.148 810.32 352.148C804.944 352.148 800.744 349.18 800.744 342.852V329.356H794.92V323.868H800.744V316.084H806.904V323.868H814.912V329.356H806.904V341.844C806.904 345.316 808.416 346.604 811.608 346.604C812.784 346.604 814.016 346.38 814.912 346.044V351.532ZM846.579 337.868C846.579 345.988 840.195 352.428 831.907 352.428C823.619 352.428 817.235 345.988 817.235 337.868C817.235 329.748 823.619 323.308 831.907 323.308C840.195 323.308 846.579 329.748 846.579 337.868ZM823.451 337.868C823.451 342.852 826.923 346.716 831.907 346.716C836.835 346.716 840.307 342.852 840.307 337.868C840.307 332.884 836.835 329.02 831.907 329.02C826.923 329.02 823.451 332.884 823.451 337.868ZM851.654 351.868V323.868H857.814V327.676C859.382 325.044 862.182 323.308 865.766 323.308C869.91 323.308 872.934 325.38 874.446 328.852C876.126 325.268 879.71 323.308 883.406 323.308C889.734 323.308 893.486 327.956 893.486 335.124V351.868H887.326V336.132C887.326 331.764 885.702 328.908 882.342 328.908C878.366 328.908 875.678 332.212 875.678 338.092V351.868H869.518V336.132C869.518 331.764 867.894 328.908 864.534 328.908C860.558 328.908 857.814 332.212 857.814 338.092V351.868H851.654ZM919.285 343.748C919.285 349.124 914.917 352.428 909.149 352.428C904.165 352.428 899.909 350.468 897.893 346.492L902.429 343.244C903.549 345.708 906.293 347.108 909.149 347.108C911.333 347.108 913.181 346.1 913.181 344.14C913.181 342.516 912.229 341.564 908.869 340.556L906.405 339.884C901.533 338.54 899.013 335.46 899.069 331.316C899.125 326.332 903.493 323.308 909.093 323.308C913.293 323.308 916.597 324.988 918.557 328.068L914.301 331.316C913.069 329.58 911.277 328.46 908.981 328.46C907.133 328.46 905.229 329.412 905.229 331.092C905.229 332.436 905.845 333.612 908.589 334.396L911.445 335.236C916.373 336.692 919.285 339.156 919.285 343.748ZM932.675 347.444C932.675 350.132 930.491 352.316 927.803 352.316C925.171 352.316 922.987 350.132 922.987 347.444C922.987 344.812 925.171 342.572 927.803 342.572C930.491 342.572 932.675 344.812 932.675 347.444Z" fill="#284849"/>
<g opacity="0.4">
<rect x="459.473" y="392.868" width="393" height="60" rx="16" fill="white"/>
</g>
<rect x="460" y="394.868" width="251" height="56" rx="14" fill="url(#paint1_linear_178_4053)"/>
<g opacity="0.4">
<line opacity="0.4" x1="484.027" y1="403.574" x2="484.027" y2="443.574" stroke="#4F7F71"/>
<line opacity="0.4" x1="527.152" y1="403.574" x2="527.152" y2="443.574" stroke="#4F7F71"/>
<line opacity="0.4" x1="570.277" y1="403.574" x2="570.277" y2="443.574" stroke="#4F7F71"/>
<line opacity="0.4" x1="613.402" y1="403.574" x2="613.402" y2="443.574" stroke="#4F7F71"/>
<line opacity="0.4" x1="656.527" y1="403.574" x2="656.527" y2="443.574" stroke="#4F7F71"/>
<line opacity="0.4" x1="699.652" y1="403.574" x2="699.652" y2="443.574" stroke="#4F7F71"/>
<line opacity="0.4" x1="742.777" y1="403.574" x2="742.777" y2="443.574" stroke="#4F7F71"/>
<line opacity="0.4" x1="785.902" y1="403.574" x2="785.902" y2="443.574" stroke="#4F7F71"/>
<line opacity="0.4" x1="829.027" y1="403.574" x2="829.027" y2="443.574" stroke="#4F7F71"/>
</g>
<g filter="url(#filter0_d_178_4053)">
<rect x="681" y="394.868" width="60" height="56" rx="14" fill="white" shape-rendering="crispEdges"/>
<path d="M705.216 428.868H702.736L707.872 419.636H702.56V417.508H710.48V419.396L705.216 428.868ZM715.733 428.868V426.276H710.085V424.5L715.973 417.508H717.925V424.26H719.413V426.276H717.925V428.868H715.733ZM715.733 424.26V420.756L712.789 424.26H715.733Z" fill="#284849"/>
</g>
<rect x="542.5" y="493.574" width="227" height="58" rx="29" fill="#4F7F71"/>
<path d="M579.313 528.574V523.758L574.897 517.214H576.673L580.049 522.27L583.441 517.214H585.217L580.785 523.774V528.574H579.313ZM592.314 524.574C592.314 526.878 590.538 528.734 588.138 528.734C585.722 528.734 583.946 526.878 583.946 524.574C583.946 522.27 585.722 520.414 588.138 520.414C590.538 520.414 592.314 522.27 592.314 524.574ZM585.354 524.574C585.354 526.174 586.474 527.454 588.138 527.454C589.802 527.454 590.906 526.174 590.906 524.574C590.906 522.974 589.802 521.694 588.138 521.694C586.474 521.694 585.354 522.974 585.354 524.574ZM593.857 525.486V520.574H595.233V525.278C595.233 526.622 595.937 527.47 597.041 527.47C598.289 527.47 599.265 526.382 599.265 524.542V520.574H600.641V528.574H599.265V527.342C598.737 528.27 597.809 528.734 596.801 528.734C595.041 528.734 593.857 527.47 593.857 525.486ZM602.915 528.574V520.574H604.291V522.126C604.611 521.102 605.603 520.494 606.531 520.494C606.739 520.494 606.931 520.51 607.155 520.558V521.982C606.899 521.886 606.675 521.854 606.403 521.854C605.395 521.854 604.291 522.734 604.291 524.606V528.574H602.915ZM615.267 517.214C617.635 517.214 619.171 518.782 619.171 520.83C619.171 522.878 617.635 524.43 615.267 524.43H613.283V528.574H611.795V517.214H615.267ZM615.267 523.054C616.835 523.054 617.699 522.094 617.699 520.83C617.699 519.566 616.835 518.606 615.267 518.606H613.283V523.054H615.267ZM619.768 524.574C619.768 522.238 621.496 520.414 623.928 520.414C626.024 520.414 627.72 521.87 627.736 524.43C627.736 524.574 627.736 524.67 627.72 524.846H621.16C621.208 526.35 622.344 527.47 623.928 527.47C625.16 527.47 625.928 526.926 626.424 526.078L627.512 526.83C626.792 527.998 625.576 528.734 623.912 528.734C621.432 528.734 619.768 526.926 619.768 524.574ZM623.88 521.63C622.68 521.63 621.512 522.398 621.256 523.726H626.328C626.136 522.414 625.096 521.63 623.88 521.63ZM629.369 528.574V520.574H630.745V522.126C631.065 521.102 632.057 520.494 632.985 520.494C633.193 520.494 633.385 520.51 633.609 520.558V521.982C633.353 521.886 633.129 521.854 632.857 521.854C631.849 521.854 630.745 522.734 630.745 524.606V528.574H629.369ZM639.952 526.334C639.952 527.87 638.768 528.734 637.168 528.734C635.744 528.734 634.512 528.126 634.032 526.878L635.152 526.254C635.44 527.07 636.304 527.518 637.184 527.518C637.952 527.518 638.576 527.134 638.576 526.446C638.576 525.87 638.224 525.518 637.184 525.198L636.384 524.942C635.072 524.558 634.384 523.726 634.384 522.606C634.4 521.23 635.6 520.414 637.136 520.414C638.32 520.414 639.248 520.91 639.776 521.806L638.752 522.51C638.4 521.998 637.856 521.598 637.088 521.598C636.416 521.598 635.76 521.966 635.76 522.558C635.76 523.038 636.016 523.438 636.896 523.71L637.776 523.982C639.152 524.398 639.952 525.118 639.952 526.334ZM649.363 524.574C649.363 526.878 647.587 528.734 645.187 528.734C642.771 528.734 640.995 526.878 640.995 524.574C640.995 522.27 642.771 520.414 645.187 520.414C647.587 520.414 649.363 522.27 649.363 524.574ZM642.403 524.574C642.403 526.174 643.523 527.454 645.187 527.454C646.851 527.454 647.955 526.174 647.955 524.574C647.955 522.974 646.851 521.694 645.187 521.694C643.523 521.694 642.403 522.974 642.403 524.574ZM651.019 528.574V520.574H652.395V521.806C652.939 520.862 653.899 520.414 654.939 520.414C656.731 520.414 657.963 521.662 657.963 523.646V528.574H656.603V523.854C656.603 522.51 655.835 521.678 654.715 521.678C653.419 521.678 652.395 522.734 652.395 524.606V528.574H651.019ZM659.496 524.574C659.496 522.286 661.176 520.414 663.416 520.414C664.616 520.414 665.704 521.038 666.232 521.806V520.574H667.608V528.574H666.232V527.342C665.704 528.11 664.616 528.734 663.416 528.734C661.176 528.734 659.496 526.862 659.496 524.574ZM666.344 524.574C666.344 522.958 665.24 521.678 663.624 521.678C662.008 521.678 660.888 522.958 660.888 524.574C660.888 526.19 662.008 527.47 663.624 527.47C665.24 527.47 666.344 526.19 666.344 524.574ZM669.879 528.574V516.574H671.255V528.574H669.879ZM675.207 517.454C675.207 517.998 674.791 518.43 674.247 518.43C673.703 518.43 673.255 517.998 673.255 517.454C673.255 516.926 673.703 516.478 674.247 516.478C674.791 516.478 675.207 516.926 675.207 517.454ZM673.543 528.574V520.574H674.919V528.574H673.543ZM676.551 528.574V527.486L681.143 521.838H676.615V520.574H682.903V521.678L678.343 527.31H683.047V528.574H676.551ZM683.873 524.574C683.873 522.238 685.601 520.414 688.033 520.414C690.129 520.414 691.825 521.87 691.841 524.43C691.841 524.574 691.841 524.67 691.825 524.846H685.265C685.313 526.35 686.449 527.47 688.033 527.47C689.265 527.47 690.033 526.926 690.529 526.078L691.617 526.83C690.897 527.998 689.681 528.734 688.017 528.734C685.537 528.734 683.873 526.926 683.873 524.574ZM687.985 521.63C686.785 521.63 685.617 522.398 685.361 523.726H690.433C690.241 522.414 689.201 521.63 687.985 521.63ZM692.849 524.574C692.849 522.286 694.529 520.414 696.769 520.414C697.969 520.414 699.057 521.038 699.585 521.806V516.574H700.961V528.574H699.585V527.342C699.057 528.11 697.969 528.734 696.769 528.734C694.529 528.734 692.849 526.862 692.849 524.574ZM699.697 524.574C699.697 522.958 698.593 521.678 696.977 521.678C695.361 521.678 694.241 522.958 694.241 524.574C694.241 526.19 695.361 527.47 696.977 527.47C698.593 527.47 699.697 526.19 699.697 524.574ZM710.451 517.214C712.819 517.214 714.355 518.782 714.355 520.83C714.355 522.878 712.819 524.43 710.451 524.43H708.467V528.574H706.979V517.214H710.451ZM710.451 523.054C712.019 523.054 712.883 522.094 712.883 520.83C712.883 519.566 712.019 518.606 710.451 518.606H708.467V523.054H710.451ZM715.795 528.574V516.574H717.171V528.574H715.795ZM718.835 524.574C718.835 522.286 720.515 520.414 722.755 520.414C723.955 520.414 725.043 521.038 725.571 521.806V520.574H726.947V528.574H725.571V527.342C725.043 528.11 723.955 528.734 722.755 528.734C720.515 528.734 718.835 526.862 718.835 524.574ZM725.683 524.574C725.683 522.958 724.579 521.678 722.963 521.678C721.347 521.678 720.227 522.958 720.227 524.574C720.227 526.19 721.347 527.47 722.963 527.47C724.579 527.47 725.683 526.19 725.683 524.574ZM729.217 528.574V520.574H730.593V521.806C731.137 520.862 732.097 520.414 733.137 520.414C734.929 520.414 736.161 521.662 736.161 523.646V528.574H734.801V523.854C734.801 522.51 734.033 521.678 732.913 521.678C731.617 521.678 730.593 522.734 730.593 524.606V528.574H729.217Z" fill="#F9F9F9"/>
<defs>
<filter id="filter0_d_178_4053" x="661" y="376.868" width="100" height="96" filterUnits="userSpaceOnUse" color-interpolation-filters="sRGB">
<feFlood flood-opacity="0" result="BackgroundImageFix"/>
<feColorMatrix in="SourceAlpha" type="matrix" values="0 0 0 0 0 0 0 0 0 0 0 0 0 0 0 0 0 0 127 0" result="hardAlpha"/>
<feOffset dy="2"/>
<feGaussianBlur stdDeviation="10"/>
<feComposite in2="hardAlpha" operator="out"/>
<feColorMatrix type="matrix" values="0 0 0 0 0 0 0 0 0 0 0 0 0 0 0 0 0 0 0.15 0"/>
<feBlend mode="normal" in2="BackgroundImageFix" result="effect1_dropShadow_178_4053"/>
<feBlend mode="normal" in="SourceGraphic" in2="effect1_dropShadow_178_4053" result="shape"/>
</filter>
<linearGradient id="paint0_linear_178_4053" x1="1104.73" y1="0.721318" x2="961.856" y2="892.553" gradientUnits="userSpaceOnUse">
<stop stop-color="#F2E5E0"/>
<stop offset="0.40678" stop-color="#F6F2EE"/>
<stop offset="1" stop-color="#EAECFA"/>
</linearGradient>
<linearGradient id="paint1_linear_178_4053" x1="847" y1="422.868" x2="460" y2="422.868" gradientUnits="userSpaceOnUse">
<stop stop-color="#EA6D6D"/>
<stop offset="0.221417" stop-color="#EE8383"/>
<stop offset="0.495991" stop-color="#F0BBA4"/>
<stop offset="0.744052" stop-color="#F2D59F"/>
<stop offset="1" stop-color="#C8E4DC"/>
</linearGradient>
</defs>
</svg>
